# xmcd CD database file
#
# Track frame offsets:
#	150
#	21702
#	43612
#	61962
#
# Disc length: 1165 seconds
#
# Revision: 0
# Processed by: cddbd v1.5PL3 Copyright (c) Steve Scherf et al.
# Submitted via: CDex 1.50beta9
#
DISCID=33048b04
DTITLE=m.c.A.T - m.c.A.T'nK.T
DYEAR=1995
DGENRE=Japanese Pop
TTITLE0=Chance is Love
TTITLE1=ガーリックライス＆ガーリックトースト
TTITLE2=Spoon
TTITLE3=ガーリックライス＆ガーリックトースト（K-remix）
EXTD=YEAR: 1995
EXTT0=
EXTT1=
EXTT2=
EXTT3=
PLAYORDER=
